<?xml version="1.0" encoding="UTF-8"?>
<!DOCTYPE svg PUBLIC "-//W3C//DTD SVG 1.1//EN" "http://www.w3.org/Graphics/SVG/1.1/DTD/svg11.dtd">
<!-- Creator: CorelDRAW 2020 (64-Bit) -->
<svg xmlns="http://www.w3.org/2000/svg" xml:space="preserve" width="79.375mm" height="79.375mm" version="1.1" style="shape-rendering:geometricPrecision; text-rendering:geometricPrecision; image-rendering:optimizeQuality; fill-rule:evenodd; clip-rule:evenodd"
viewBox="0 0 7937.5 7937.5"
 xmlns:xlink="http://www.w3.org/1999/xlink"
 xmlns:xodm="http://www.corel.com/coreldraw/odm/2003">
 <defs>
  <style type="text/css">
   <![CDATA[
    .fil0 {fill:#F7964D;fill-rule:nonzero}
    .fil1 {fill:#FF6F00;fill-rule:nonzero}
    .fil2 {fill:white;fill-rule:nonzero}
   ]]>
  </style>
 </defs>
 <g id="Layer_x0020_1">
  <metadata id="CorelCorpID_0Corel-Layer"/>
  <g id="_2483089112208">
   <path class="fil0" d="M6590.52 7598.87l-5243.54 0c-556.81,0 -1008.35,-451.54 -1008.35,-1008.35l0 -5243.54c0,-556.81 451.54,-1008.35 1008.35,-1008.35l5243.54 0c556.81,0 1008.35,451.54 1008.35,1008.35l0 5243.54c0,556.81 -451.54,1008.35 -1008.35,1008.35z"/>
   <path class="fil1" d="M6590.52 7699.37l-5243.54 0c-306.14,0 -583.36,-124.15 -784.03,-324.82 -200.67,-200.67 -324.82,-477.89 -324.82,-784.03l0 -5243.54c0,-306.14 124.15,-583.36 324.82,-784.03 200.67,-200.67 477.89,-324.82 784.03,-324.82l5243.54 0c306.14,0 583.36,124.15 784.03,324.82 200.67,200.67 324.82,477.89 324.82,784.03l0 5243.54c0,306.14 -124.15,583.36 -324.82,784.03 -200.67,200.67 -477.89,324.82 -784.03,324.82zm-5243.54 -200.99l5243.54 0c250.66,0 477.64,-101.63 641.93,-265.93 164.3,-164.29 265.93,-391.27 265.93,-641.93l0 -5243.54c0,-250.66 -101.63,-477.64 -265.93,-641.93 -164.29,-164.3 -391.27,-265.93 -641.93,-265.93l-5243.54 0c-250.66,0 -477.64,101.63 -641.93,265.93 -164.3,164.29 -265.93,391.27 -265.93,641.93l0 5243.54c0,250.66 101.63,477.64 265.93,641.93 164.29,164.3 391.27,265.93 641.93,265.93z"/>
   <path class="fil2" d="M5884.62 3565.34l-201.61 0c-167.01,0 -302.53,-135.52 -302.53,-302.53l0 -100.77c0,-779.68 -632.04,-1411.72 -1411.73,-1411.72l-806.67 0c-779.68,0 -1411.72,632.04 -1411.72,1411.72l0 1613.42c0,779.68 632.04,1411.72 1411.72,1411.72l1613.34 -0.07c779.68,0 1411.72,-632.04 1411.72,-1411.73l0 -907.51c0,-167.01 -135.52,-302.53 -302.52,-302.53zm-2722.54 -604.98l1008.36 0c111.51,0 201.68,90.32 201.68,201.68 0,111.37 -90.17,201.69 -201.68,201.69l-1008.36 -0.08c-111.51,0 -201.68,-90.32 -201.68,-201.68 0,-111.36 90.17,-201.61 201.68,-201.61zm1613.34 2016.71l-1613.34 0c-111.51,0 -201.68,-90.33 -201.68,-201.69 0,-111.36 90.17,-201.69 201.68,-201.69l1613.34 0c111.51,0 201.68,90.33 201.68,201.69 0,111.36 -90.17,201.69 -201.68,201.69z"/>
  </g>
 </g>
</svg>
