<?xml version="1.0" encoding="UTF-8"?>
<!DOCTYPE svg PUBLIC "-//W3C//DTD SVG 1.1//EN" "http://www.w3.org/Graphics/SVG/1.1/DTD/svg11.dtd">
<!-- Creator: CorelDRAW 2020 (64-Bit) -->
<svg xmlns="http://www.w3.org/2000/svg" xml:space="preserve" width="79.375mm" height="79.375mm" version="1.1" style="shape-rendering:geometricPrecision; text-rendering:geometricPrecision; image-rendering:optimizeQuality; fill-rule:evenodd; clip-rule:evenodd"
viewBox="0 0 7937.5 7937.5"
 xmlns:xlink="http://www.w3.org/1999/xlink"
 xmlns:xodm="http://www.corel.com/coreldraw/odm/2003">
 <defs>
  <style type="text/css">
   <![CDATA[
    .str0 {stroke:#FF6F00;stroke-width:211.67;stroke-miterlimit:22.9256}
    .fil0 {fill:#F7964D;fill-rule:nonzero}
    .fil1 {fill:white;fill-rule:nonzero}
   ]]>
  </style>
 </defs>
 <g id="Layer_x0020_1">
  <metadata id="CorelCorpID_0Corel-Layer"/>
  <path class="fil0 str0" d="M6729.98 7791.98l-5522.46 0c-586.43,0 -1062,-475.57 -1062,-1062l0 -5522.46c0,-586.43 475.57,-1062 1062,-1062l5522.46 0c586.43,0 1062,475.57 1062,1062l0 5522.46c0,586.43 -475.57,1062 -1062,1062z"/>
  <path class="fil1" d="M5986.53 3543.88l-212.33 0c-175.89,0 -318.63,-142.73 -318.63,-318.62l0 -106.13c0,-821.16 -665.66,-1486.82 -1486.82,-1486.82l-849.58 0c-821.16,0 -1486.82,665.66 -1486.82,1486.82l0 1699.24c0,821.16 665.66,1486.82 1486.82,1486.82l1699.16 -0.08c821.16,0 1486.82,-665.66 1486.82,-1486.82l0 -955.79c0,-175.89 -142.73,-318.62 -318.62,-318.62zm-2867.36 -637.16l1061.99 0c117.45,0 212.42,95.13 212.42,212.41 0,117.29 -94.97,212.42 -212.42,212.42l-1061.99 -0.08c-117.45,0 -212.41,-95.13 -212.41,-212.42 0,-117.28 94.96,-212.33 212.41,-212.33zm1699.16 2123.98l-1699.16 0c-117.45,0 -212.41,-95.13 -212.41,-212.41 0,-117.29 94.96,-212.42 212.41,-212.42l1699.16 0c117.45,0 212.41,95.13 212.41,212.42 0,117.28 -94.96,212.41 -212.41,212.41z"/>
 </g>
</svg>
