<?xml version="1.0" encoding="UTF-8"?>
<!DOCTYPE svg PUBLIC "-//W3C//DTD SVG 1.1//EN" "http://www.w3.org/Graphics/SVG/1.1/DTD/svg11.dtd">
<!-- Creator: CorelDRAW 2020 (64-Bit) -->
<svg xmlns="http://www.w3.org/2000/svg" xml:space="preserve" width="79.375mm" height="79.375mm" version="1.1" style="shape-rendering:geometricPrecision; text-rendering:geometricPrecision; image-rendering:optimizeQuality; fill-rule:evenodd; clip-rule:evenodd"
viewBox="0 0 7937.5 7937.5"
 xmlns:xlink="http://www.w3.org/1999/xlink"
 xmlns:xodm="http://www.corel.com/coreldraw/odm/2003">
 <defs>
  <style type="text/css">
   <![CDATA[
    .fil0 {fill:#F7964D;fill-rule:nonzero}
    .fil1 {fill:#FF6F00;fill-rule:nonzero}
    .fil2 {fill:white;fill-rule:nonzero}
   ]]>
  </style>
 </defs>
 <g id="Layer_x0020_1">
  <metadata id="CorelCorpID_0Corel-Layer"/>
  <g id="_2483089832368">
   <path class="fil0" d="M6478.95 7444.4l-5020.4 0c-533.12,0 -965.45,-432.33 -965.45,-965.45l0 -5020.4c0,-533.12 432.33,-965.45 965.45,-965.45l5020.4 0c533.12,0 965.45,432.33 965.45,965.45l0 5020.4c0,533.12 -432.33,965.45 -965.45,965.45z"/>
   <path class="fil1" d="M6478.95 7540.62l-5020.4 0c-293.12,0 -558.54,-118.86 -750.67,-311 -192.14,-192.13 -311,-457.55 -311,-750.67l0 -5020.4c0,-293.12 118.86,-558.54 311,-750.67 192.13,-192.14 457.55,-311 750.67,-311l5020.4 0c293.12,0 558.54,118.86 750.67,311 192.14,192.13 311,457.55 311,750.67l0 5020.4c0,293.12 -118.86,558.54 -311,750.67 -192.13,192.14 -457.55,311 -750.67,311zm-5020.4 -192.44l5020.4 0c240,0 457.32,-97.3 614.62,-254.61 157.31,-157.3 254.61,-374.62 254.61,-614.62l0 -5020.4c0,-240 -97.3,-457.32 -254.61,-614.62 -157.3,-157.31 -374.62,-254.61 -614.62,-254.61l-5020.4 0c-240,0 -457.32,97.3 -614.62,254.61 -157.31,157.3 -254.61,374.62 -254.61,614.62l0 5020.4c0,240 97.3,457.32 254.61,614.62 157.3,157.31 374.62,254.61 614.62,254.61z"/>
   <path class="fil2" d="M5803.09 3582.51l-193.03 0c-159.9,0 -289.66,-129.76 -289.66,-289.66l0 -96.48c0,-746.51 -605.14,-1351.65 -1351.65,-1351.65l-772.34 0c-746.51,0 -1351.65,605.14 -1351.65,1351.65l0 1544.76c0,746.51 605.14,1351.65 1351.65,1351.65l1544.68 -0.07c746.51,0 1351.65,-605.15 1351.65,-1351.65l0 -868.9c0,-159.9 -129.75,-289.65 -289.65,-289.65zm-2606.68 -579.24l965.44 0c106.77,0 193.11,86.48 193.11,193.1 0,106.62 -86.34,193.11 -193.11,193.11l-965.44 -0.08c-106.77,0 -193.11,-86.48 -193.11,-193.1 0,-106.62 86.34,-193.03 193.11,-193.03zm1544.68 1930.89l-1544.68 0c-106.77,0 -193.11,-86.48 -193.11,-193.1 0,-106.63 86.34,-193.11 193.11,-193.11l1544.68 0c106.77,0 193.11,86.48 193.11,193.11 0,106.62 -86.34,193.1 -193.11,193.1z"/>
  </g>
 </g>
</svg>
