<svg xmlns="http://www.w3.org/2000/svg"  viewBox="0 0 40 40" width="40px" height="40px"><polygon fill="#98ccfc" points="31,2 24,2 20.786,8 9,8 9,17 15.964,17 9,30 9,37 16,37 19.214,31 31,31 31,21.971 24.051,21.971 31,9"/><path fill="#4788c7" d="M31,2v7l-6.949,12.971H31V31H19.214L16,37H9v-7l6.964-13H9V8h11.786L24,2H31 M31,1h-7	c-0.369,0-0.707,0.203-0.881,0.528L20.187,7H9C8.448,7,8,7.448,8,8v9c0,0.552,0.448,1,1,1h5.294L8.119,29.528	C8.041,29.673,8,29.835,8,30v7c0,0.552,0.448,1,1,1h7c0.369,0,0.707-0.203,0.881-0.528L19.813,32H31c0.552,0,1-0.448,1-1v-9.029	c0-0.552-0.448-1-1-1h-5.279l6.16-11.499C31.959,9.327,32,9.165,32,9V2C32,1.448,31.552,1,31,1L31,1z"/></svg>