<?xml version="1.0" encoding="UTF-8" standalone="no"?>
<!-- Created with Inkscape (http://www.inkscape.org/) -->

<svg
   xmlns:dc="http://purl.org/dc/elements/1.1/"
   xmlns:cc="http://creativecommons.org/ns#"
   xmlns:rdf="http://www.w3.org/1999/02/22-rdf-syntax-ns#"
   xmlns:svg="http://www.w3.org/2000/svg"
   xmlns="http://www.w3.org/2000/svg"
   xmlns:sodipodi="http://sodipodi.sourceforge.net/DTD/sodipodi-0.dtd"
   xmlns:inkscape="http://www.inkscape.org/namespaces/inkscape"
   width="225.77777mm"
   height="188.97957mm"
   viewBox="0 0 799.99998 669.61264"
   id="svg2"
   version="1.1"
   inkscape:version="0.91 r13725"
   sodipodi:docname="StylisedLion15.svg">
  <defs
     id="defs4">
    <clipPath
       id="id0">
      <path
         inkscape:connector-curvature="0"
         d="m 6500000,15909400 801930,0 c 189250,-89820 580580,-490790 580580,-490790 1077790,-1491570 -269440,-1504410 -269440,-1504410 l -1113070,0 -1113070,0 c 0,0 -1347230,12840 -266240,1504410 0,0 388130,400970 577380,490790 l 801930,0 z"
         id="path7" />
    </clipPath>
  </defs>
  <sodipodi:namedview
     id="base"
     pagecolor="#ffffff"
     bordercolor="#666666"
     borderopacity="1.0"
     inkscape:pageopacity="0.0"
     inkscape:pageshadow="2"
     inkscape:zoom="1.0005785"
     inkscape:cx="399.99999"
     inkscape:cy="334.80632"
     inkscape:document-units="px"
     inkscape:current-layer="layer1"
     showgrid="false"
     fit-margin-top="0"
     fit-margin-left="0"
     fit-margin-right="0"
     fit-margin-bottom="0"
     inkscape:window-width="1600"
     inkscape:window-height="837"
     inkscape:window-x="-8"
     inkscape:window-y="-8"
     inkscape:window-maximized="1" />
  <metadata
     id="metadata7">
    <rdf:RDF>
      <cc:Work
         rdf:about="">
        <dc:format>image/svg+xml</dc:format>
        <dc:type
           rdf:resource="http://purl.org/dc/dcmitype/StillImage" />
        <dc:title></dc:title>
      </cc:Work>
    </rdf:RDF>
  </metadata>
  <g
     inkscape:label="Layer 1"
     inkscape:groupmode="layer"
     id="layer1"
     transform="translate(-39.177161,1641.9635)">
    <g
       transform="matrix(2.0401049e-4,0,0,2.0401049e-4,-2413.4334,-2516.3133)"
       style="fill-rule:evenodd"
       id="g9719">
      <path
         d="m 13036801,7521650.1 37164,-21457.7 15899,21496.4 c 21182,28640.7 79793,28316.6 118684,-658.9 l 29738,-22153 24901,22153 c 32739,29129 93880,29167.6 132920,104 27332,-20360 31143,-20769 49214,-5280.9 10774,9233.8 42372,19746.4 70220,23360.7 50152,6510.7 50911,6153 80255,-37869.2 24575,-36867.8 28419,-51789.1 22554,-87546.5 -3886,-23706.1 -8074,-61860.7 -9305,-84787.7 -2226,-41512.9 -1987,-41771.1 58482,-62826.5 33395,-11628.1 72051,-27224 85902,-34657.5 24150,-12960.3 90731,-91214.4 90731,-106637.8 0,-4086.8 -26012,-10347.3 -57802,-13913.6 -126452,-14183.1 -147868,-82087.8 -65663,-208214.9 134062,-205696.2 214961,-406015.4 215502,-533624.8 243,-57039 3491,-76190.4 10820,-63786.5 29954,50690.2 -23707,263230.6 -104994,415858.9 l -32730,61458.3 31232,-7190 c 17178,-3954.2 118170,-46563.9 224425,-94687.7 290839,-131725.5 390735,-157538.8 578958,-149610.8 157691,6642 224845,37449 336182,154225.7 58982,61863.7 115800,106127.5 219739,171188.4 221440,138612.3 230675,150618.9 241207,313628.1 10669,165160 5359,174119.8 -119563,201719.3 -106767,23588.6 -173706,73363.2 -191658,142513 -9587,36929.5 10588,37993.1 64418,3397.2 l 39450,-25354.8 17542,25354.8 c 23062,33333.8 72082,33466.7 112787,303.3 l 30748,-25048.2 31432,25048.2 c 48838,38918 113784,29480.2 132113,-19198.5 3524,-9356.2 12927,-6358.7 31969,10190.5 35680,31009.7 127143,44310.7 137022,19928.6 3770,-9303 -3391,-32278 -15913,-51055.4 -53214,-79793.2 -69861,-117846.6 -70554,-161281 -961,-60412.8 17062,-89561.4 85776,-138692.9 83469,-59684 109263,-136685.6 45786,-136685.6 -39192,0 -78703,-34641.9 -103899,-91098.1 -51219,-114761.2 -41181,-243416.2 35691,-457442.1 78082,-217393.5 86744,-257478.1 87056,-402871.7 255,-117557.8 -2707,-137887.3 -29454,-202335.9 -16352,-39406.1 -49533,-98081.4 -73733,-130389.4 l -44003,-58742.1 56495,-46804 c 172501,-142910.2 137214,-376801 -70444,-466918.5 -63527,-27569.3 -79400,-30003.8 -190729,-29255.5 -66789,449.5 -168629,9238.4 -226310,19531.9 -58812,10495.4 -158361,18930.3 -226648,19204.5 -108482,436.5 -126896,-2237.7 -168703,-24490.5 -43592,-23203.1 -51066,-34219.5 -59600,-87848.9 -1755,-11024 -9462,-22021.4 -17127,-24438.6 -14827,-4675.6 -83301,54751.6 -93418,81075.2 -4991,12988.3 -9064,12090.3 -23707,-5227.8 -9725,-11500.3 -23302,-37926.6 -30173,-58724.2 -17278,-52305.4 3939,-91514.7 65421,-120899.1 l 47701,-22797.4 -28128,-17454.6 c -58043,-36017.5 -156736,-11378.9 -192429,48040.1 -10096,16807.5 -21109,30589.5 -24472,30625.7 -3363,25.7 -22554,-15998 -42648,-35631.7 -74941,-73226.3 -49162,-181561.8 51073,-214637.7 53450,-17637.6 100751,-4183.1 110593,31458.3 15025,54413.6 61731,-17111.4 53354,-81706.2 -5569,-42945.6 -4733,-44434 24984,-44434 41324,0 129281,54236.6 156486,96493.2 31598,49082.6 29299,126373.6 -5474,183976.9 l -27303,45231.1 35716,-7152.3 c 52373,-10488.1 103256,-43012.9 128997,-82457.2 27212,-41699.8 30139,-122896.1 6007,-166715 -23384,-42464.1 -20702,-49205.2 13868,-34855.4 58798,24406.3 90233,51323.1 113812,97452.3 21235,41542.7 22420,51865.9 10925,95103.6 -7093,26676 -22874,61773.7 -35070,77994 -18990,25256.6 -19638,29491.1 -4508,29491.1 28177,0 87013,-26668.2 107909,-48911.9 10557,-11238.2 25949,-38909.3 34204,-61492.2 l 15010,-41059.1 17247,31297.5 c 24390,44256.9 71805,84082.1 129615,108864.7 62174,26654.3 88067,28156.3 55553,3222 -21925,-16814.5 -62326,-135363.2 -50083,-146959 7205,-6823 91623,58130.1 188006,144654.4 91175,81850.6 148468,108660.5 232209,108661.1 106972,0.6 169258,-93119.2 121180,-181170.3 -28032,-51335.7 -90477,-58467.2 -126993,-14502.7 -16791,20216.5 -21401,36298.4 -16482,57503 6024,25976.1 3673,29437.6 -19993,29437.6 -31094,0 -92388,-39782.8 -201245,-130618.7 -165997,-138514.7 -367698,-255924.2 -513338,-298812.1 -93466,-27523.4 -293124,-38264.3 -388136,-20880.1 -102832,18815.4 -224462,77664.1 -290723,140661.2 -117412,111629 -119275,260177.2 -4957,395446.1 l 32747,38748.8 -22170,34436.7 c -32252,50098.5 -29490,117516.8 6849,167177.2 16005,21872.5 32150,39759 35878,39747.5 3728,-8.4 7816,-14073.4 9084,-31248.9 3209,-43449.7 21857,-72561.1 53865,-84086.5 28828,-10380.3 47465,-5477.6 179465,47210 138864,55427.1 367239,59236.8 610077,10177.5 119048,-24051 259425,-22636.4 321183,3236.5 113210,47426.9 139443,170815.1 56229,264474.8 -36024,40545.6 -70767,57057.1 -187414,89070.5 -88763,24360.7 -109788,25978 -311540,23963.7 -172364,-1720.6 -234309,1589.6 -304669,16280.4 -76384,15948.5 -123365,17556.7 -347744,11902.4 l -259429,-6537.5 28769,23821.8 c 15823,13101.9 38178,29221.9 49677,35822.6 19568,11231.2 18916,12740.1 -10168,23523.9 -17093,6337.5 -55029,11523 -84303,11523 l -53225,0 -7163,45232.6 c -3940,24878.1 -3641,53923.3 662,64545.6 6348,15666.5 3982,17916.4 -12529,11916 -11194,-4068.4 -42370,-12069.8 -69281,-17781.2 -26910,-5711.6 -63132,-17341.6 -80495,-25844.7 -29198,-14299.4 -32442,-13915.2 -43197,5116.3 -9603,16995.4 -99762,84096.5 -112994,84096.5 -2135,0 -4891,-12938.2 -6125,-28751.3 -1233,-15813.4 -14240,-56980.4 -28903,-91482 -14665,-34501.7 -29977,-72140.1 -34028,-83640.7 -6110,-17348.3 -8877,-18238.8 -16245,-5227.5 -4885,8625.5 -12018,32149.1 -15850,52275.5 -3832,20125.9 -17417,52820.8 -30190,72655.8 l -23222,36062.7 -14812,-30835.6 c -15900,-33101.5 -42298,-67427.7 -51855,-67427.7 -3226,0 -8720,10585.7 -12208,23523.6 -7286,27018.6 -69882,101937.2 -85170,101937.2 -5631,0 -10236,-21171.6 -10236,-47047.8 0,-25876.5 -4968,-47048.1 -11040,-47048.1 -6072,0 -11039,6696.1 -11039,14880.6 0,19893.8 -53459,79215.3 -71387,79215.3 -7824,0 -20410,7057.1 -27969,15682.6 -19709,22489.6 -35831,19333.8 -27545,-5391.8 3885,-11590.7 1359,-38643.4 -5613,-60116.8 -6973,-21473.1 -14387,-44327.6 -16476,-50787.5 -2631,-8135.5 -21788,-5977.5 -62333,7021.8 -65519,21005.5 -87480,17289.3 -53784,-9101.3 12318,-9647.4 31053,-43064.6 41636,-74260.9 10581,-31196.1 26194,-58875.9 34696,-61510.9 11904,-3689.9 11270,869.9 -2760,19839.7 -10019,13547.3 -18247,31817.7 -18285,40601.2 0,8783.5 -7577,29608.3 -16757,46276.9 -9178,16669.2 -14948,31955.2 -12821,33969.4 2126,2014.2 27055,-7455.6 55395,-21043.9 l 51528,-24705.6 210,22101.8 c 121,12156.1 6327,44225.1 13800,71264.6 l 13586,49162 35076,-16120.9 c 35847,-16476.1 69800,-75211.3 69800,-120750.5 0,-22511.9 12895,-19056.2 18175,4870.4 1550,7021.2 9644,33374 17988,58561.4 l 15170,45795.4 24016,-28914.4 c 13208,-15903.2 29768,-47096.8 36798,-69319.3 12204,-38578.2 31366,-55163.7 31366,-27149.1 0,20188 55092,92590.9 65720,86370.2 5136,-3006.2 15364,-30180.4 22729,-60387.1 15317,-62818.9 40028,-105542.8 55730,-96352.4 5903,3455.7 8203,10162.4 5109,14903.8 -3095,4741.1 9594,45582.7 28197,90759.2 18602,45176.7 37283,90661.5 41512,101078 6794,16736.9 12936,14305.5 52812,-20910 24817,-21917.1 47342,-46451.8 50054,-54521.5 4100,-12199.3 9636,-11752.8 32843,2647.7 32453,20138.3 141562,52586.4 149988,44605.5 3156,-2989 6392,-31644.3 7191,-63678.6 l 1453,-58243.9 31377,6506.7 c 17257,3578.7 53542,3358.8 80635,-490.2 l 49258,-6995.5 -43899,-30117 c -24145,-16564.4 -48558,-38000 -54251,-47635.1 -6065,-10264.2 -27554,-18979.7 -51896,-21048.3 -65770,-5589.1 -182336,-70968.1 -182336,-102267.7 0,-5876 16145,4115.2 35878,22202.6 43776,40125.7 104593,65311.3 157709,65311.3 l 39746,0 -24587,-32700.9 c -14124,-18784.7 -26791,-54418.5 -29765,-83733.2 -4740,-46727.3 -9673,-54157.1 -58464,-88077 -29307,-20374.7 -65608,-50913.5 -80668,-67863.9 l -27383,-30819.3 -13970,36591.4 c -7685,20125.2 -17076,36591.4 -20869,36591.4 -3794,0 -18565,-11762.2 -32825,-26137.7 -14261,-14375.8 -28788,-26083.7 -32283,-26017.9 -3496,59.5 -16129,19429.6 -28072,43030.2 l -21717,42910.6 -16781,-24734.1 c -9231,-13603.7 -31033,-37671.9 -48449,-53485.3 -17416,-15813.4 -26576,-28751.3 -20355,-28751.3 6219,0 27715,16473.1 47769,36606.8 l 36458,36607.1 14838,-26820.1 c 8805,-15915.5 12105,-40363.5 8116,-60131 -5814,-28812.7 -4997,-30487.4 6050,-12400.6 7025,11500.4 28354,33549.2 47398,48997.1 l 34627,28086.8 23895,-43769.4 c 23781,-43559.4 23948,-43644 34768,-17631.9 14469,34787.1 119184,120624.5 208335,170775.9 13741,7730.1 7948,-18851.1 -17429,-79974.8 -6721,-16187.3 -12219,-45370.6 -12219,-64851.5 0,-28900.6 -8338,-41763.6 -45300,-69890.8 -53362,-40607.8 -70619,-69484.8 -80675,-134997.3 -4073,-26537.5 -13412,-56052.4 -20753,-65589 -10889,-14148.3 -12689,-6230.3 -9775,43022.3 1964,33198.8 -2354,74476.1 -9596,91726.7 l -13166,31365.2 -10177,-26137.7 c -5597,-14375.5 -30354,-39375.7 -55018,-55555.5 -24662,-16180.1 -41972,-32135.2 -38465,-35456.2 3506,-3320.7 28878,11425.4 56381,32768.9 41900,32515.5 51129,36035.9 56932,21714.8 6818,-16828.1 -8,-90042.3 -13181,-141208.3 -6574,-25548.4 -5999,-25411 25518,6100.7 23245,23240.9 36098,50960.6 46056,99323.3 12650,61439.9 19032,71667.9 75842,121549.8 34117,29955.7 63806,52782.7 65978,50726.8 2170,-2055.9 6476,-79546.4 9567,-172201.1 5928,-177678.9 -773,-219954.1 -43562,-274848.4 l -21985,-28205.4 34561,-37279.9 c 45087,-48631.9 65788,-87614.5 74768,-140796.9 l 7304,-43264 -39003,36938.9 c -31938,30246.6 -47190,36938.8 -84181,36938.8 -36629,0 -50938,-6138.2 -75621,-32440.6 -29616,-31557.9 -82094,-61923 -132559,-76700.8 -18643,-5458.9 -24839,-3080.9 -24839,9530.2 0,9242 -10298,35919.6 -22884,59283.4 l -22883,42479.4 -47944,-47389.4 c -29410,-29067.3 -64311,-51692.8 -90273,-58520.3 -66333,-17444 -69925,-15711.9 -69925,33709.3 0,74964.1 -32007,88930.9 -89610,39103.4 -43912,-37983.6 -80338,-46241.5 -163605,-37088.9 l -64310,7068.9 11571,29032.3 c 9665,24250.6 7487,34463.2 -13221,62005.7 -33588,44671.9 -77259,64022.9 -144485,64022.9 -30963,0 -69709,6407.4 -86105,14238.4 -16396,7831 -57133,16853.1 -90528,20049.1 -33394,3196 -68988,8900.1 -79095,12676.3 -15818,5908.7 -17554,1039.2 -12460,-34936.9 7798,-55056.7 -30661,-95667.3 -90597,-95667.3 -77764,0 -113633,69559.4 -83179,161311.5 5861,17659.1 13530,45508.4 17041,61887.9 3645,16992.7 38673,62085.5 81577,105014.7 41355,41379.1 80440,84435.5 86856,95680.6 6416,11245.4 27627,29291.8 47136,40103.1 l 35473,19657 -4679,-37953.2 c -5142,-41712.2 3947,-48256.1 26140,-18821.8 7933,10522.6 28087,27530.7 44784,37795.2 26303,16170.5 30359,16498.8 30359,2458.9 0,-8912.4 5362,-29448.8 11915,-45636.5 l 11916,-29432.2 20675,40045.4 c 11371,22024.7 48350,72081.1 82175,111236.6 65632,75975.5 105622,160876.8 84982,180424.2 -8371,7927.3 -31000,7313.8 -77900,-2112.2 -36357,-7306.9 -81326,-11169.2 -99933,-8582.9 -37999,5281.8 -40991,376.1 -17622,-28884.2 24665,-30883.7 20742,-35977.3 -27713,-35977.3 -56060,0 -195237,-26873.3 -248661,-48013.2 -51948,-20556 -63933,-15437.6 -79224,33833.4 -6882,22174.6 -19483,62354.9 -28001,89289.9 l -15487,48972.3 56204,-5412.6 c 30913,-2977 70672,-9745.3 88354,-15040.7 17682,-5295.1 33752,-8109.2 35712,-6253.6 1959,1855.7 -5922,20991.6 -17513,42524.2 l -21076,39149.7 35042,-7143.2 c 19273,-3928.8 48270,-13542.4 64438,-21363.4 28131,-13608.9 30390,-12620.5 52580,22995.5 27286,43799.6 49114,42000.1 53958,-4448.6 5007,-48018.7 20802,-40916 50516,22716.1 28573,61187.7 58300,82791 64012,46518 1895,-12043.2 17288,-31647.7 34204,-43564.9 34217,-24105.7 60002,-16873.4 74786,20974.7 15303,39177.8 -18827,79559.9 -118104,139739 -198865,120546.6 -314465,285413.5 -347466,495553.8 -29766,189539.1 63201,385400.2 249705,526075.4 89252,67320.4 231035,138370.9 222026,111260.8 -38263,-115136.5 -37004,-334819.4 2134,-371883.8 5873,-5562.2 3853,17360.6 -4490,50940.3 -31074,125083.5 -17575,224749.7 62081,458345.3 72044,211271 62072,301568.3 -39894,361249.8 -32748,19168.6 -53833,22327.1 -141885,21258.6 -95542,-1160.6 -105952,763.1 -136626,25204.1 -29738,23698.2 -68294,101503.1 -68294,137813.5 0,19669.1 21841,17065.8 64763,-7715.9 z m 774240,-1832283.4 c 0,-15338.6 -45045,-56908.2 -90689,-83692.4 -35845,-21035.1 -41767,-21674.3 -41847,-4518.1 -122,26046.8 -23283,91482 -32379,91482 -5129,0 -12713,-12787.5 -16855,-28416.1 -4142,-15628.8 -21518,-46430 -38615,-68447.1 l -31085,-40031.2 -24205,37089.8 c -22563,34575.7 -61650,68439.4 -78996,68439.4 -4143,0 -4954,-18209.2 -1802,-40465 3425,-24180.6 784,-43362.1 -6571,-47664.9 -6765,-3959.9 -12300,-2578.5 -12300,3070 0,13028.9 -54280,74604.7 -65766,74604.7 -4732,0 -11357,-17642.8 -14723,-39206.5 -3365,-21563.7 -9084,-55673.3 -12710,-75799.4 -3625,-20125.8 4105,-6477.7 17179,30329.4 l 23771,66922 26068,-40784.3 c 14337,-22431.6 26093,-46942.9 26124,-54470.4 0,-7527.1 4880,-10862.3 10777,-7411.4 5895,3450.9 14100,30414.2 18232,59918.9 l 7515,53644.9 28684,-31449.2 c 15776,-17297.2 34263,-40454.7 41081,-51460.8 12166,-19639.2 12855,-19622.6 37053,899.9 13561,11500.3 34411,39008.9 46331,61130 11922,22120.4 23270,38587.2 25221,36592.6 1950,-1994.9 6318,-24798.7 9708,-50674.8 3389,-25876.5 6415,-48007.5 6723,-49180.5 1687,-6411.9 86404,48655.4 117749,76538 20146,17921.6 39280,30075.6 42518,27008.7 3239,-3067.3 5888,-29507.8 5888,-58756.9 0,-45326.3 -4804,-57474.9 -32528,-82256.3 -31876,-28493.1 -32768,-28649.5 -44547,-7807.2 -15286,27050.3 -33320,27440.9 -33320,721.1 0,-19501.8 -60239,-94459.6 -75910,-94459.6 -4063,0 -16749,16466.8 -28194,36592.9 -11445,20125.9 -23752,36573.9 -27349,36551 -15452,-94.6 -100374,-94778.6 -100337,-111865.6 0,-13593.4 5724,-10117.4 20611,12583.9 11313,17251 33912,43004.2 50218,57229.3 33019,28803.9 45023,21800.2 57764,-33705.1 3630,-15813.4 9939,-28751.6 14020,-28751.6 14116,0 88042,78515.7 98439,104550.7 l 10438,26137.8 7906,-28751.3 c 9668,-35158.4 20335,-36466.1 35771,-4384.4 6447,13402.3 38293,41265.8 70768,61919 l 59046,37551.5 11850,-37769.2 c 6518,-20773.2 15152,-32710.4 19187,-26527.2 6018,9220.3 -9331,71805.7 -20911,85271.9 -1735,2018.2 -20869,-9126 -42520,-24764.8 l -39362,-28434.4 -156,50902.3 c -109,27996.4 -3146,61488.5 -6807,74426.7 -7160,25297.4 -26161,32414 -26161,9797.3 z m -294417,-405843.8 c -70174,-58589.6 -80827,-71996.3 -79273,-99765.6 l 1654,-29555.7 4578,28546.8 c 2674,16668.8 21362,41648.4 44916,60036.4 l 40340,31490 24788,-28671.3 c 13635,-15769.3 24968,-34552.4 25186,-41740 574,-18743.2 3937,-17168.8 51448,24054.7 42213,36627 42871,36801.9 49149,13069 3500,-13230.1 2258,-38138.4 -2760,-55351.3 -13793,-47314.5 -11090,-54455 9810,-25919 10412,14217.5 27156,34316.1 37208,44663.8 17496,18012.8 18564,17790.1 25074,-5227.8 3740,-13222.5 6867,-37424.5 6950,-53781.6 l 155,-29740.7 38061,43144.1 c 35552,40300.3 38828,41788.9 49678,22586.5 6390,-11306.4 11693,-38509.6 11786,-60451.2 121,-28344.4 3106,-35496.4 10315,-24703.5 12039,18022.5 3681,67094.2 -18549,108913 l -15953,30008 -20947,-32621.5 c -26784,-41712.2 -35701,-41042.5 -52887,3971.1 -16243,42539.3 -26804,45777.2 -42630,13068.7 -10242,-21167.4 -12191,-18573.8 -19461,25894.9 l -8080,49418.8 -48410,-37569 -48412,-37568.9 -21763,24742.8 c -11970,13608.8 -21929,30624.2 -22131,37812.1 -441,15578.7 -12085,16065.3 -29834,1246.4 z m 624248,-218209.1 c -25543,-23012.2 -43139,-44968 -39103,-48790.5 4036,-3822.5 8581,-4917.5 10099,-2433.2 1518,2484 22397,24439.8 46398,48790.1 55263,56066.3 43902,57655.5 -17394,2433.6 z m -831503,-85947.1 c -23236,-31417.1 -21631,-52232 6652,-86285.1 20439,-24607.4 29775,-27946.9 65463,-23413.3 22894,2908.1 72157,23135.4 109475,44949.8 43099,25193.8 87679,42071.1 122208,46266.7 29898,3632.4 54360,5001.7 54360,3043.4 0,-1958.7 -12419,-22193 -27599,-44965.9 -36047,-54078.3 -34813,-59882.4 5845,-27482.9 41734,33258.6 91655,42985.2 203212,39594.7 l 54502,-1656.6 -31618,-31256.2 c -44220,-43711.6 -30611,-47630.8 18223,-5247.6 45800,39750.5 42931,42549.5 -53467,52171 -40962,4088.6 -85013,1122.8 -121627,-8188.4 -54780,-13931.5 -56906,-13719.4 -46529,4643.8 5981,10583.5 15667,19242.6 21525,19242.6 5858,0 10652,5363 10652,11917.8 0,20157.2 -118320,2431.7 -174860,-26195.5 -129167,-65399.2 -145421,-71062.5 -176165,-61374.3 -17108,5390.8 -34231,21170.7 -40132,36983.5 -19686,52747.9 55122,93748.2 85978,47121.8 8943,-13514.9 6854,-22758.8 -8864,-39206.2 -21525,-22526.8 -19505,-25736.3 9553,-15176.3 20631,7497.5 23406,57027.8 4215,75203.4 -21959,20795.8 -72070,14909 -91002,-10690.2 z m 508830,-130295.2 c -16152,-15297.1 -3490,-19044.1 68924,-20394.4 89586,-1670.5 143992,-16599.1 208186,-57124.4 51435,-32471.1 65380,-26081.3 16559,7587.2 -44538,30713.9 -114003,54325.7 -181065,61544.8 -32475,3495.6 -69485,8338.5 -82245,10761.4 -12760,2423 -26421,1354.2 -30359,-2374.6 z m 769487,2668357.1 40078,-25757.5 27198,25757.5 c 35632,33745.5 77375,32991 111634,-2017.9 14949,-15277.2 28374,-25862.9 29832,-23523.9 1457,2338.7 8124,13661.4 14814,25162.1 8468,14557.6 25880,21877.3 57308,24094.8 37867,2671.3 48035,-993.2 63081,-22740.6 l 17936,-25925.7 39452,25354.8 c 108011,69417.4 165558,-3411.7 117288,-148434.9 -24544,-73739.6 -11048,-115194.1 68058,-209048.3 33358,-39576.6 60680,-81819.5 60713,-93870.9 0,-19215.4 -6171,-21789.6 -50567,-20910.3 -42484,847.6 -54914,-3715.5 -77276,-28332 -36373,-40038.8 -34212,-85892.7 6447,-136775.7 l 32482,-40649.2 -57628,-39108.3 c -31696,-21510.3 -88853,-72400.2 -127017,-113090.5 -85709,-91383.5 -169988,-134718.8 -281118,-144546.5 l -74514,-6589.8 110,56401 c 143,72608.2 34218,142456.5 127234,260769.2 105759,134520.3 113143,155345.8 117426,331171.7 l 3621,148701.7 -30603,29034.9 c -27653,26234.8 -40122,29582.7 -129350,34728.6 -84950,4899.3 -102797,9282.2 -127724,31365.1 -33108,29330.8 -43009,45284.3 -53231,85787.3 -5958,23604.3 -3544,28751.3 13491,28751.3 11412,0 38784,-11591.5 60827,-25758 z m -2273126,-384316.4 c 9450,-12779.9 17185,-33417.5 17185,-45860.9 0,-18800.3 8401,-23816.9 49714,-29684.1 l 49714,-7060.2 -33155,-26422.3 c -39390,-31389 -43034,-55911.6 -8316,-55966 34578,0 93139,-35906.9 102042,-62472.1 4137,-12347.3 1535,-28844.6 -5886,-37314.3 -19385,-22119.8 -55829,-18784.6 -62599,5729.5 -7276,26352 -19458,26420.8 -47076,260.7 -41545,-39346.6 -42478,-120790.6 -1926,-168219.1 19112,-22351.8 18941,-23817.5 -5424,-46892.8 -26211,-24823.7 -44930,-73955.2 -32617,-85615.7 3918,-3710.4 24626,-753.6 46018,6574.1 30397,10410.2 42397,10568.2 54920,721.4 37934,-29815.9 -3163,-68154.5 -63996,-59698.5 -24483,3403.2 -34598,0 -38113,-12699.9 -2660,-9632 -24074,-22208.6 -48201,-28306.9 -43112,-10898.3 -43416,-10765.7 -43416,18937.1 0,32549.1 -18580,38689.1 -53885,17808.3 -28687,-16967.6 -56510,-3795.2 -56510,26754.6 0,28503.7 28664,42560.5 80037,39250.3 39403,-2539.5 40869,26761.9 3446,68881 l -26912,30289.5 21319,30629.3 c 31576,45362.5 28918,120702.8 -5578,158120.4 l -27043,29334.9 -17740,-23523.9 c -24655,-32691 -58378,-30499.7 -67626,4394.3 -6055,22849.4 -1050,33291 27563,57502.7 19229,16271.3 47302,29584.7 62386,29584.7 37327,0 35868,29354.9 -2934,59009.8 l -30359,23201.8 46918,7277.7 c 25805,4003.4 46918,11534.1 46918,16733.2 0,19941.2 32517,81969 42969,81969 6037,0 18711,-10456.1 28163,-23236.3 z m 610914,-264772.6 c 42627,-16802.1 134879,-94923.6 134879,-114218.4 0,-6070.2 -25463,-34075.1 -56585,-62235 -65494,-59258.3 -136736,-159056.2 -155195,-217405.8 -9624,-30424.6 -56132,-82506.5 -187134,-209561.6 l -174327,-169075.5 -50244,12726.2 c -27634,6999.4 -61349,12896.3 -74924,13103.2 -23393,355.5 -22969,1698.9 8132,25768.6 l 32813,25393.5 46002,-25531.5 c 44589,-24748.2 46177,-24900.8 51676,-4984 3220,11659.5 -3726,31866 -16054,46710.1 -11952,14388.5 -18759,30710.9 -15131,36272.1 3629,5559.7 -7852,17186.9 -25513,25836.6 -32734,16031.5 -55455,68804.8 -29623,68804.8 23241,0 74489,-63231.5 68583,-84618.2 -3024,-10951.8 -1562,-22216.2 3250,-25032.8 19960,-11682.5 18713,37961.4 -1566,62378.2 -11952,14388.2 -18759,30710.6 -15131,36271.8 3629,5560 -7852,17187.2 -25513,25836.6 -32523,15927.3 -55472,68804.8 -29863,68804.8 25098,0 75505,-60423.1 69263,-83025.7 -3266,-11827.8 -2002,-23808.4 2810,-26625 13443,-7868.4 20695,31322.3 9348,50524.1 -6079,10286.6 -6024,24328 143,35463.8 11164,20172.9 -155,58915.1 -20730,70958.6 -8820,5161.6 -2847,15290.5 18545,31445.6 30955,23378.6 31556,25833.5 31556,128989.6 0,86205.9 3480,108455.7 19319,123461.9 17773,16841.1 19319,16901.5 19319,753.7 0,-17638.8 30962,-39200.4 56290,-39200.4 7472,0 54151,39559 103731,87908.4 49881,48643.4 102077,90036 116856,92671.6 14690,2620.2 30595,5404.5 35344,6187.4 4748,784.2 27103,-5856 49678,-14754.3 z m -533012,-417122.7 c 0,-27790.8 -57325,-57455 -125889,-65145.8 -55357,-6209.2 -56263,-5857.9 -56263,21794.8 0,22890.4 8705,31895.3 46918,48532.5 61402,26732.5 135234,23904.5 135234,-5181.5 z m 62872,-2542 c 27962,-25371.1 41211,-55546.7 24388,-55546.7 -19348,0 -70700,46080.8 -70700,63442.7 0,27098.3 9538,25471.6 46312,-7896 z m -59642,-82149.4 c 2369,-15679.6 -7329,-26144.1 -36400,-39272.6 -62711,-28321.8 -137685,-41438.6 -155740,-27247 -33258,26139.9 -11098,61236.6 42650,67550.3 21639,2541.7 50981,9140.8 65204,14665.5 41309,16044.2 80594,8728.8 84286,-15696.2 z m 0,-83980.5 c 3376,-22367.6 -10926,-30372 -127695,-71471 -87173,-30681.3 -125761,-16213.6 -97901,36708 9705,18435.1 25993,26856.7 62524,32327 27169,4069 64303,12024.2 82518,17679.3 48663,15106.9 76777,9787.3 80554,-15243.3 z m 58531,-78714.2 c 17618,-17858.1 32031,-38934.6 32031,-46834.5 0,-25627.6 -69578,19711.1 -78447,51117 -10638,37670.5 6607,36080.4 46419,-4282.5 z m -58481,-5289.3 c 3841,-25479 -38532,-48488.4 -121860,-66174.4 -61135,-12975.7 -88101,-5616.5 -83522,22793.2 2499,15508 22859,26838.2 80620,44865 92436,28846.4 120240,28516 124762,-1483.8 z m 81484,-118603.4 c 106775,-47532.9 116012,-167394.4 15325,-198864.4 -41806,-13066.9 -68493,-6026.1 -84496,22290.8 -12252,21683.1 -4058,61105.5 12702,61105.5 5663,0 10296,7297.3 10296,16216.1 0,41619.5 -163027,60477.5 -229885,26590.3 -23488,-11905.2 -33714,-42806.4 -14166,-42806.4 14608,0 24707,-31487.8 17243,-53759.3 -10168,-30343 -40750,-40855.2 -85108,-29255.8 -100085,26171.9 -97276,143778.1 4627,193684.4 83560,40922 266731,43409.3 353462,4798.8 z m -66434,-92097.3 c 6183,-5856.4 3497,-14855.5 -6870,-23002.8 -22700,-17842.2 -21489,-44379 3410,-74757.3 18699,-22812.8 21035,-56951.7 27471,-401316.6 11089,-593452 55221,-1039838.7 113389,-1146925.3 23158,-42633.9 19910,-42803.3 -39931,-2088.6 -77083,52449.2 -135776,120746.9 -187778,218512.1 -98180,184580.1 -132297,432908.9 -132297,962978.9 0,300987.4 2051,340367 19195,368657.4 16286,26873.9 17151,36799.2 5712,65501.9 -7416,18605.5 -10781,36387.8 -7478,39515.8 21919,20758.7 181604,15251.8 205179,-7075.5 z m 897161,-565898.4 c 3345,-5125.3 -4046,-31001.5 -16423,-57503 -19297,-41320.7 -27070,-48183.8 -54562,-48183.8 -86120,0 -224567,-38486.4 -367295,-102102.2 -82420,-36736.1 -110886,-45178.5 -120772,-35816.9 -25218,23882.8 16694,80570.5 81600,110368.8 57579,26434.4 218547,58915.4 291972,58915.4 42597,0 43604,1922.2 19363,36960.6 l -17830,25769.8 48189,1237 c 26502,681.2 63091,4828.4 81306,9218.2 47309,11400.7 47751,11410 54456,1136.1 z"
         id="path3011"
         style="fill:#000000;fill-opacity:1;stroke:#000000;stroke-width:47399.1640625;stroke-miterlimit:4;stroke-dasharray:none"
         inkscape:connector-curvature="0" />
      <path
         d="m 13036801,7521650.1 37164,-21457.7 15899,21496.4 c 21182,28640.7 79793,28316.6 118684,-658.9 l 29738,-22153 24901,22153 c 32739,29129 93880,29167.6 132920,104 27332,-20360 31143,-20769 49214,-5280.9 10774,9233.8 42372,19746.4 70220,23360.7 50152,6510.7 50911,6153 80255,-37869.2 24575,-36867.8 28419,-51789.1 22554,-87546.5 -3886,-23706.1 -8074,-61860.7 -9305,-84787.7 -2226,-41512.9 -1987,-41771.1 58482,-62826.5 33395,-11628.1 72051,-27224 85902,-34657.5 24150,-12960.3 90731,-91214.4 90731,-106637.8 0,-4086.8 -26012,-10347.3 -57802,-13913.6 -126452,-14183.1 -147868,-82087.8 -65663,-208214.9 134062,-205696.2 214961,-406015.4 215502,-533624.8 243,-57039 3491,-76190.4 10820,-63786.5 29954,50690.2 -23707,263230.6 -104994,415858.9 l -32730,61458.3 31232,-7190 c 17178,-3954.2 118170,-46563.9 224425,-94687.7 290839,-131725.5 390735,-157538.8 578958,-149610.8 157691,6642 224845,37449 336182,154225.7 58982,61863.7 115800,106127.5 219739,171188.4 221440,138612.3 230675,150618.9 241207,313628.1 10669,165160 5359,174119.8 -119563,201719.3 -106767,23588.6 -173706,73363.2 -191658,142513 -9587,36929.5 10588,37993.1 64418,3397.2 l 39450,-25354.8 17542,25354.8 c 23062,33333.8 72082,33466.7 112787,303.3 l 30748,-25048.2 31432,25048.2 c 48838,38918 113784,29480.2 132113,-19198.5 3524,-9356.2 12927,-6358.7 31969,10190.5 35680,31009.7 127143,44310.7 137022,19928.6 3770,-9303 -3391,-32278 -15913,-51055.4 -53214,-79793.2 -69861,-117846.6 -70554,-161281 -961,-60412.8 17062,-89561.4 85776,-138692.9 83469,-59684 109263,-136685.6 45786,-136685.6 -39192,0 -78703,-34641.9 -103899,-91098.1 -51219,-114761.2 -41181,-243416.2 35691,-457442.1 78082,-217393.5 86744,-257478.1 87056,-402871.7 255,-117557.8 -2707,-137887.3 -29454,-202335.9 -16352,-39406.1 -49533,-98081.4 -73733,-130389.4 l -44003,-58742.1 56495,-46804 c 172501,-142910.2 137214,-376801 -70444,-466918.5 -63527,-27569.3 -79400,-30003.8 -190729,-29255.5 -66789,449.5 -168629,9238.4 -226310,19531.9 -58812,10495.4 -158361,18930.3 -226648,19204.5 -108482,436.5 -126896,-2237.7 -168703,-24490.5 -43592,-23203.1 -51066,-34219.5 -59600,-87848.9 -1755,-11024 -9462,-22021.4 -17127,-24438.6 -14827,-4675.6 -83301,54751.6 -93418,81075.2 -4991,12988.3 -9064,12090.3 -23707,-5227.8 -9725,-11500.3 -23302,-37926.6 -30173,-58724.2 -17278,-52305.4 3939,-91514.7 65421,-120899.1 l 47701,-22797.4 -28128,-17454.6 c -58043,-36017.5 -156736,-11378.9 -192429,48040.1 -10096,16807.5 -21109,30589.5 -24472,30625.7 -3363,25.7 -22554,-15998 -42648,-35631.7 -74941,-73226.3 -49162,-181561.8 51073,-214637.7 53450,-17637.6 100751,-4183.1 110593,31458.3 15025,54413.6 61731,-17111.4 53354,-81706.2 -5569,-42945.6 -4733,-44434 24984,-44434 41324,0 129281,54236.6 156486,96493.2 31598,49082.6 29299,126373.6 -5474,183976.9 l -27303,45231.1 35716,-7152.3 c 52373,-10488.1 103256,-43012.9 128997,-82457.2 27212,-41699.8 30139,-122896.1 6007,-166715 -23384,-42464.1 -20702,-49205.2 13868,-34855.4 58798,24406.3 90233,51323.1 113812,97452.3 21235,41542.7 22420,51865.9 10925,95103.6 -7093,26676 -22874,61773.7 -35070,77994 -18990,25256.6 -19638,29491.1 -4508,29491.1 28177,0 87013,-26668.2 107909,-48911.9 10557,-11238.2 25949,-38909.3 34204,-61492.2 l 15010,-41059.1 17247,31297.5 c 24390,44256.9 71805,84082.1 129615,108864.7 62174,26654.3 88067,28156.3 55553,3222 -21925,-16814.5 -62326,-135363.2 -50083,-146959 7205,-6823 91623,58130.1 188006,144654.4 91175,81850.6 148468,108660.5 232209,108661.1 106972,0.6 169258,-93119.2 121180,-181170.3 -28032,-51335.7 -90477,-58467.2 -126993,-14502.7 -16791,20216.5 -21401,36298.4 -16482,57503 6024,25976.1 3673,29437.6 -19993,29437.6 -31094,0 -92388,-39782.8 -201245,-130618.7 -165997,-138514.7 -367698,-255924.2 -513338,-298812.1 -93466,-27523.4 -293124,-38264.3 -388136,-20880.1 -102832,18815.4 -224462,77664.1 -290723,140661.2 -117412,111629 -119275,260177.2 -4957,395446.1 l 32747,38748.8 -22170,34436.7 c -32252,50098.5 -29490,117516.8 6849,167177.2 16005,21872.5 32150,39759 35878,39747.5 3728,-8.4 7816,-14073.4 9084,-31248.9 3209,-43449.7 21857,-72561.1 53865,-84086.5 28828,-10380.3 47465,-5477.6 179465,47210 138864,55427.1 367239,59236.8 610077,10177.5 119048,-24051 259425,-22636.4 321183,3236.5 113210,47426.9 139443,170815.1 56229,264474.8 -36024,40545.6 -70767,57057.1 -187414,89070.5 -88763,24360.7 -109788,25978 -311540,23963.7 -172364,-1720.6 -234309,1589.6 -304669,16280.4 -76384,15948.5 -123365,17556.7 -347744,11902.4 l -259429,-6537.5 28769,23821.8 c 15823,13101.9 38178,29221.9 49677,35822.6 19568,11231.2 18916,12740.1 -10168,23523.9 -17093,6337.5 -55029,11523 -84303,11523 l -53225,0 -7163,45232.6 c -3940,24878.1 -3641,53923.3 662,64545.6 6348,15666.5 3982,17916.4 -12529,11916 -11194,-4068.4 -42370,-12069.8 -69281,-17781.2 -26910,-5711.6 -63132,-17341.6 -80495,-25844.7 -29198,-14299.4 -32442,-13915.2 -43197,5116.3 -9603,16995.4 -99762,84096.5 -112994,84096.5 -2135,0 -4891,-12938.2 -6125,-28751.3 -1233,-15813.4 -14240,-56980.4 -28903,-91482 -14665,-34501.7 -29977,-72140.1 -34028,-83640.7 -6110,-17348.3 -8877,-18238.8 -16245,-5227.5 -4885,8625.5 -12018,32149.1 -15850,52275.5 -3832,20125.9 -17417,52820.8 -30190,72655.8 l -23222,36062.7 -14812,-30835.6 c -15900,-33101.5 -42298,-67427.7 -51855,-67427.7 -3226,0 -8720,10585.7 -12208,23523.6 -7286,27018.6 -69882,101937.2 -85170,101937.2 -5631,0 -10236,-21171.6 -10236,-47047.8 0,-25876.5 -4968,-47048.1 -11040,-47048.1 -6072,0 -11039,6696.1 -11039,14880.6 0,19893.8 -53459,79215.3 -71387,79215.3 -7824,0 -20410,7057.1 -27969,15682.6 -19709,22489.6 -35831,19333.8 -27545,-5391.8 3885,-11590.7 1359,-38643.4 -5613,-60116.8 -6973,-21473.1 -14387,-44327.6 -16476,-50787.5 -2631,-8135.5 -21788,-5977.5 -62333,7021.8 -65519,21005.5 -87480,17289.3 -53784,-9101.3 12318,-9647.4 31053,-43064.6 41636,-74260.9 10581,-31196.1 26194,-58875.9 34696,-61510.9 11904,-3689.9 11270,869.9 -2760,19839.7 -10019,13547.3 -18247,31817.7 -18285,40601.2 0,8783.5 -7577,29608.3 -16757,46276.9 -9178,16669.2 -14948,31955.2 -12821,33969.4 2126,2014.2 27055,-7455.6 55395,-21043.9 l 51528,-24705.6 210,22101.8 c 121,12156.1 6327,44225.1 13800,71264.6 l 13586,49162 35076,-16120.9 c 35847,-16476.1 69800,-75211.3 69800,-120750.5 0,-22511.9 12895,-19056.2 18175,4870.4 1550,7021.2 9644,33374 17988,58561.4 l 15170,45795.4 24016,-28914.4 c 13208,-15903.2 29768,-47096.8 36798,-69319.3 12204,-38578.2 31366,-55163.7 31366,-27149.1 0,20188 55092,92590.9 65720,86370.2 5136,-3006.2 15364,-30180.4 22729,-60387.1 15317,-62818.9 40028,-105542.8 55730,-96352.4 5903,3455.7 8203,10162.4 5109,14903.8 -3095,4741.1 9594,45582.7 28197,90759.2 18602,45176.7 37283,90661.5 41512,101078 6794,16736.9 12936,14305.5 52812,-20910 24817,-21917.1 47342,-46451.8 50054,-54521.5 4100,-12199.3 9636,-11752.8 32843,2647.7 32453,20138.3 141562,52586.4 149988,44605.5 3156,-2989 6392,-31644.3 7191,-63678.6 l 1453,-58243.9 31377,6506.7 c 17257,3578.7 53542,3358.8 80635,-490.2 l 49258,-6995.5 -43899,-30117 c -24145,-16564.4 -48558,-38000 -54251,-47635.1 -6065,-10264.2 -27554,-18979.7 -51896,-21048.3 -65770,-5589.1 -182336,-70968.1 -182336,-102267.7 0,-5876 16145,4115.2 35878,22202.6 43776,40125.7 104593,65311.3 157709,65311.3 l 39746,0 -24587,-32700.9 c -14124,-18784.7 -26791,-54418.5 -29765,-83733.2 -4740,-46727.3 -9673,-54157.1 -58464,-88077 -29307,-20374.7 -65608,-50913.5 -80668,-67863.9 l -27383,-30819.3 -13970,36591.4 c -7685,20125.2 -17076,36591.4 -20869,36591.4 -3794,0 -18565,-11762.2 -32825,-26137.7 -14261,-14375.8 -28788,-26083.7 -32283,-26017.9 -3496,59.5 -16129,19429.6 -28072,43030.2 l -21717,42910.6 -16781,-24734.1 c -9231,-13603.7 -31033,-37671.9 -48449,-53485.3 -17416,-15813.4 -26576,-28751.3 -20355,-28751.3 6219,0 27715,16473.1 47769,36606.8 l 36458,36607.1 14838,-26820.1 c 8805,-15915.5 12105,-40363.5 8116,-60131 -5814,-28812.7 -4997,-30487.4 6050,-12400.6 7025,11500.4 28354,33549.2 47398,48997.1 l 34627,28086.8 23895,-43769.4 c 23781,-43559.4 23948,-43644 34768,-17631.9 14469,34787.1 119184,120624.5 208335,170775.9 13741,7730.1 7948,-18851.1 -17429,-79974.8 -6721,-16187.3 -12219,-45370.6 -12219,-64851.5 0,-28900.6 -8338,-41763.6 -45300,-69890.8 -53362,-40607.8 -70619,-69484.8 -80675,-134997.3 -4073,-26537.5 -13412,-56052.4 -20753,-65589 -10889,-14148.3 -12689,-6230.3 -9775,43022.3 1964,33198.8 -2354,74476.1 -9596,91726.7 l -13166,31365.2 -10177,-26137.7 c -5597,-14375.5 -30354,-39375.7 -55018,-55555.5 -24662,-16180.1 -41972,-32135.2 -38465,-35456.2 3506,-3320.7 28878,11425.4 56381,32768.9 41900,32515.5 51129,36035.9 56932,21714.8 6818,-16828.1 -8,-90042.3 -13181,-141208.3 -6574,-25548.4 -5999,-25411 25518,6100.7 23245,23240.9 36098,50960.6 46056,99323.3 12650,61439.9 19032,71667.9 75842,121549.8 34117,29955.7 63806,52782.7 65978,50726.8 2170,-2055.9 6476,-79546.4 9567,-172201.1 5928,-177678.9 -773,-219954.1 -43562,-274848.4 l -21985,-28205.4 34561,-37279.9 c 45087,-48631.9 65788,-87614.5 74768,-140796.9 l 7304,-43264 -39003,36938.9 c -31938,30246.6 -47190,36938.8 -84181,36938.8 -36629,0 -50938,-6138.2 -75621,-32440.6 -29616,-31557.9 -82094,-61923 -132559,-76700.8 -18643,-5458.9 -24839,-3080.9 -24839,9530.2 0,9242 -10298,35919.6 -22884,59283.4 l -22883,42479.4 -47944,-47389.4 c -29410,-29067.3 -64311,-51692.8 -90273,-58520.3 -66333,-17444 -69925,-15711.9 -69925,33709.3 0,74964.1 -32007,88930.9 -89610,39103.4 -43912,-37983.6 -80338,-46241.5 -163605,-37088.9 l -64310,7068.9 11571,29032.3 c 9665,24250.6 7487,34463.2 -13221,62005.7 -33588,44671.9 -77259,64022.9 -144485,64022.9 -30963,0 -69709,6407.4 -86105,14238.4 -16396,7831 -57133,16853.1 -90528,20049.1 -33394,3196 -68988,8900.1 -79095,12676.3 -15818,5908.7 -17554,1039.2 -12460,-34936.9 7798,-55056.7 -30661,-95667.3 -90597,-95667.3 -77764,0 -113633,69559.4 -83179,161311.5 5861,17659.1 13530,45508.4 17041,61887.9 3645,16992.7 38673,62085.5 81577,105014.7 41355,41379.1 80440,84435.5 86856,95680.6 6416,11245.4 27627,29291.8 47136,40103.1 l 35473,19657 -4679,-37953.2 c -5142,-41712.2 3947,-48256.1 26140,-18821.8 7933,10522.6 28087,27530.7 44784,37795.2 26303,16170.5 30359,16498.8 30359,2458.9 0,-8912.4 5362,-29448.8 11915,-45636.5 l 11916,-29432.2 20675,40045.4 c 11371,22024.7 48350,72081.1 82175,111236.6 65632,75975.5 105622,160876.8 84982,180424.2 -8371,7927.3 -31000,7313.8 -77900,-2112.2 -36357,-7306.9 -81326,-11169.2 -99933,-8582.9 -37999,5281.8 -40991,376.1 -17622,-28884.2 24665,-30883.7 20742,-35977.3 -27713,-35977.3 -56060,0 -195237,-26873.3 -248661,-48013.2 -51948,-20556 -63933,-15437.6 -79224,33833.4 -6882,22174.6 -19483,62354.9 -28001,89289.9 l -15487,48972.3 56204,-5412.6 c 30913,-2977 70672,-9745.3 88354,-15040.7 17682,-5295.1 33752,-8109.2 35712,-6253.6 1959,1855.7 -5922,20991.6 -17513,42524.2 l -21076,39149.7 35042,-7143.2 c 19273,-3928.8 48270,-13542.4 64438,-21363.4 28131,-13608.9 30390,-12620.5 52580,22995.5 27286,43799.6 49114,42000.1 53958,-4448.6 5007,-48018.7 20802,-40916 50516,22716.1 28573,61187.7 58300,82791 64012,46518 1895,-12043.2 17288,-31647.7 34204,-43564.9 34217,-24105.7 60002,-16873.4 74786,20974.7 15303,39177.8 -18827,79559.9 -118104,139739 -198865,120546.6 -314465,285413.5 -347466,495553.8 -29766,189539.1 63201,385400.2 249705,526075.4 89252,67320.4 231035,138370.9 222026,111260.8 -38263,-115136.5 -37004,-334819.4 2134,-371883.8 5873,-5562.2 3853,17360.6 -4490,50940.3 -31074,125083.5 -17575,224749.7 62081,458345.3 72044,211271 62072,301568.3 -39894,361249.8 -32748,19168.6 -53833,22327.1 -141885,21258.6 -95542,-1160.6 -105952,763.1 -136626,25204.1 -29738,23698.2 -68294,101503.1 -68294,137813.5 0,19669.1 21841,17065.8 64763,-7715.9 z m 774240,-1832283.4 c 0,-15338.6 -45045,-56908.2 -90689,-83692.4 -35845,-21035.1 -41767,-21674.3 -41847,-4518.1 -122,26046.8 -23283,91482 -32379,91482 -5129,0 -12713,-12787.5 -16855,-28416.1 -4142,-15628.8 -21518,-46430 -38615,-68447.1 l -31085,-40031.2 -24205,37089.8 c -22563,34575.7 -61650,68439.4 -78996,68439.4 -4143,0 -4954,-18209.2 -1802,-40465 3425,-24180.6 784,-43362.1 -6571,-47664.9 -6765,-3959.9 -12300,-2578.5 -12300,3070 0,13028.9 -54280,74604.7 -65766,74604.7 -4732,0 -11357,-17642.8 -14723,-39206.5 -3365,-21563.7 -9084,-55673.3 -12710,-75799.4 -3625,-20125.8 4105,-6477.7 17179,30329.4 l 23771,66922 26068,-40784.3 c 14337,-22431.6 26093,-46942.9 26124,-54470.4 0,-7527.1 4880,-10862.3 10777,-7411.4 5895,3450.9 14100,30414.2 18232,59918.9 l 7515,53644.9 28684,-31449.2 c 15776,-17297.2 34263,-40454.7 41081,-51460.8 12166,-19639.2 12855,-19622.6 37053,899.9 13561,11500.3 34411,39008.9 46331,61130 11922,22120.4 23270,38587.2 25221,36592.6 1950,-1994.9 6318,-24798.7 9708,-50674.8 3389,-25876.5 6415,-48007.5 6723,-49180.5 1687,-6411.9 86404,48655.4 117749,76538 20146,17921.6 39280,30075.6 42518,27008.7 3239,-3067.3 5888,-29507.8 5888,-58756.9 0,-45326.3 -4804,-57474.9 -32528,-82256.3 -31876,-28493.1 -32768,-28649.5 -44547,-7807.2 -15286,27050.3 -33320,27440.9 -33320,721.1 0,-19501.8 -60239,-94459.6 -75910,-94459.6 -4063,0 -16749,16466.8 -28194,36592.9 -11445,20125.9 -23752,36573.9 -27349,36551 -15452,-94.6 -100374,-94778.6 -100337,-111865.6 0,-13593.4 5724,-10117.4 20611,12583.9 11313,17251 33912,43004.2 50218,57229.3 33019,28803.9 45023,21800.2 57764,-33705.1 3630,-15813.4 9939,-28751.6 14020,-28751.6 14116,0 88042,78515.7 98439,104550.7 l 10438,26137.8 7906,-28751.3 c 9668,-35158.4 20335,-36466.1 35771,-4384.4 6447,13402.3 38293,41265.8 70768,61919 l 59046,37551.5 11850,-37769.2 c 6518,-20773.2 15152,-32710.4 19187,-26527.2 6018,9220.3 -9331,71805.7 -20911,85271.9 -1735,2018.2 -20869,-9126 -42520,-24764.8 l -39362,-28434.4 -156,50902.3 c -109,27996.4 -3146,61488.5 -6807,74426.7 -7160,25297.4 -26161,32414 -26161,9797.3 z m -294417,-405843.8 c -70174,-58589.6 -80827,-71996.3 -79273,-99765.6 l 1654,-29555.7 4578,28546.8 c 2674,16668.8 21362,41648.4 44916,60036.4 l 40340,31490 24788,-28671.3 c 13635,-15769.3 24968,-34552.4 25186,-41740 574,-18743.2 3937,-17168.8 51448,24054.7 42213,36627 42871,36801.9 49149,13069 3500,-13230.1 2258,-38138.4 -2760,-55351.3 -13793,-47314.5 -11090,-54455 9810,-25919 10412,14217.5 27156,34316.1 37208,44663.8 17496,18012.8 18564,17790.1 25074,-5227.8 3740,-13222.5 6867,-37424.5 6950,-53781.6 l 155,-29740.7 38061,43144.1 c 35552,40300.3 38828,41788.9 49678,22586.5 6390,-11306.4 11693,-38509.6 11786,-60451.2 121,-28344.4 3106,-35496.4 10315,-24703.5 12039,18022.5 3681,67094.2 -18549,108913 l -15953,30008 -20947,-32621.5 c -26784,-41712.2 -35701,-41042.5 -52887,3971.1 -16243,42539.3 -26804,45777.2 -42630,13068.7 -10242,-21167.4 -12191,-18573.8 -19461,25894.9 l -8080,49418.8 -48410,-37569 -48412,-37568.9 -21763,24742.8 c -11970,13608.8 -21929,30624.2 -22131,37812.1 -441,15578.7 -12085,16065.3 -29834,1246.4 z m 624248,-218209.1 c -25543,-23012.2 -43139,-44968 -39103,-48790.5 4036,-3822.5 8581,-4917.5 10099,-2433.2 1518,2484 22397,24439.8 46398,48790.1 55263,56066.3 43902,57655.5 -17394,2433.6 z m -831503,-85947.1 c -23236,-31417.1 -21631,-52232 6652,-86285.1 20439,-24607.4 29775,-27946.9 65463,-23413.3 22894,2908.1 72157,23135.4 109475,44949.8 43099,25193.8 87679,42071.1 122208,46266.7 29898,3632.4 54360,5001.7 54360,3043.4 0,-1958.7 -12419,-22193 -27599,-44965.9 -36047,-54078.3 -34813,-59882.4 5845,-27482.9 41734,33258.6 91655,42985.2 203212,39594.7 l 54502,-1656.6 -31618,-31256.2 c -44220,-43711.6 -30611,-47630.8 18223,-5247.6 45800,39750.5 42931,42549.5 -53467,52171 -40962,4088.6 -85013,1122.8 -121627,-8188.4 -54780,-13931.5 -56906,-13719.4 -46529,4643.8 5981,10583.5 15667,19242.6 21525,19242.6 5858,0 10652,5363 10652,11917.8 0,20157.2 -118320,2431.7 -174860,-26195.5 -129167,-65399.2 -145421,-71062.5 -176165,-61374.3 -17108,5390.8 -34231,21170.7 -40132,36983.5 -19686,52747.9 55122,93748.2 85978,47121.8 8943,-13514.9 6854,-22758.8 -8864,-39206.2 -21525,-22526.8 -19505,-25736.3 9553,-15176.3 20631,7497.5 23406,57027.8 4215,75203.4 -21959,20795.8 -72070,14909 -91002,-10690.2 z m 508830,-130295.2 c -16152,-15297.1 -3490,-19044.1 68924,-20394.4 89586,-1670.5 143992,-16599.1 208186,-57124.4 51435,-32471.1 65380,-26081.3 16559,7587.2 -44538,30713.9 -114003,54325.7 -181065,61544.8 -32475,3495.6 -69485,8338.5 -82245,10761.4 -12760,2423 -26421,1354.2 -30359,-2374.6 z m 769487,2668357.1 40078,-25757.5 27198,25757.5 c 35632,33745.5 77375,32991 111634,-2017.9 14949,-15277.2 28374,-25862.9 29832,-23523.9 1457,2338.7 8124,13661.4 14814,25162.1 8468,14557.6 25880,21877.3 57308,24094.8 37867,2671.3 48035,-993.2 63081,-22740.6 l 17936,-25925.7 39452,25354.8 c 108011,69417.4 165558,-3411.7 117288,-148434.9 -24544,-73739.6 -11048,-115194.1 68058,-209048.3 33358,-39576.6 60680,-81819.5 60713,-93870.9 0,-19215.4 -6171,-21789.6 -50567,-20910.3 -42484,847.6 -54914,-3715.5 -77276,-28332 -36373,-40038.8 -34212,-85892.7 6447,-136775.7 l 32482,-40649.2 -57628,-39108.3 c -31696,-21510.3 -88853,-72400.2 -127017,-113090.5 -85709,-91383.5 -169988,-134718.8 -281118,-144546.5 l -74514,-6589.8 110,56401 c 143,72608.2 34218,142456.5 127234,260769.2 105759,134520.3 113143,155345.8 117426,331171.7 l 3621,148701.7 -30603,29034.9 c -27653,26234.8 -40122,29582.7 -129350,34728.6 -84950,4899.3 -102797,9282.2 -127724,31365.1 -33108,29330.8 -43009,45284.3 -53231,85787.3 -5958,23604.3 -3544,28751.3 13491,28751.3 11412,0 38784,-11591.5 60827,-25758 z m -2273126,-384316.4 c 9450,-12779.9 17185,-33417.5 17185,-45860.9 0,-18800.3 8401,-23816.9 49714,-29684.1 l 49714,-7060.2 -33155,-26422.3 c -39390,-31389 -43034,-55911.6 -8316,-55966 34578,0 93139,-35906.9 102042,-62472.1 4137,-12347.3 1535,-28844.6 -5886,-37314.3 -19385,-22119.8 -55829,-18784.6 -62599,5729.5 -7276,26352 -19458,26420.8 -47076,260.7 -41545,-39346.6 -42478,-120790.6 -1926,-168219.1 19112,-22351.8 18941,-23817.5 -5424,-46892.8 -26211,-24823.7 -44930,-73955.2 -32617,-85615.7 3918,-3710.4 24626,-753.6 46018,6574.1 30397,10410.2 42397,10568.2 54920,721.4 37934,-29815.9 -3163,-68154.5 -63996,-59698.5 -24483,3403.2 -34598,0 -38113,-12699.9 -2660,-9632 -24074,-22208.6 -48201,-28306.9 -43112,-10898.3 -43416,-10765.7 -43416,18937.1 0,32549.1 -18580,38689.1 -53885,17808.3 -28687,-16967.6 -56510,-3795.2 -56510,26754.6 0,28503.7 28664,42560.5 80037,39250.3 39403,-2539.5 40869,26761.9 3446,68881 l -26912,30289.5 21319,30629.3 c 31576,45362.5 28918,120702.8 -5578,158120.4 l -27043,29334.9 -17740,-23523.9 c -24655,-32691 -58378,-30499.7 -67626,4394.3 -6055,22849.4 -1050,33291 27563,57502.7 19229,16271.3 47302,29584.7 62386,29584.7 37327,0 35868,29354.9 -2934,59009.8 l -30359,23201.8 46918,7277.7 c 25805,4003.4 46918,11534.1 46918,16733.2 0,19941.2 32517,81969 42969,81969 6037,0 18711,-10456.1 28163,-23236.3 z m 610914,-264772.6 c 42627,-16802.1 134879,-94923.6 134879,-114218.4 0,-6070.2 -25463,-34075.1 -56585,-62235 -65494,-59258.3 -136736,-159056.2 -155195,-217405.8 -9624,-30424.6 -56132,-82506.5 -187134,-209561.6 l -174327,-169075.5 -50244,12726.2 c -27634,6999.4 -61349,12896.3 -74924,13103.2 -23393,355.5 -22969,1698.9 8132,25768.6 l 32813,25393.5 46002,-25531.5 c 44589,-24748.2 46177,-24900.8 51676,-4984 3220,11659.5 -3726,31866 -16054,46710.1 -11952,14388.5 -18759,30710.9 -15131,36272.1 3629,5559.7 -7852,17186.9 -25513,25836.6 -32734,16031.5 -55455,68804.8 -29623,68804.8 23241,0 74489,-63231.5 68583,-84618.2 -3024,-10951.8 -1562,-22216.2 3250,-25032.8 19960,-11682.5 18713,37961.4 -1566,62378.2 -11952,14388.2 -18759,30710.6 -15131,36271.8 3629,5560 -7852,17187.2 -25513,25836.6 -32523,15927.3 -55472,68804.8 -29863,68804.8 25098,0 75505,-60423.1 69263,-83025.7 -3266,-11827.8 -2002,-23808.4 2810,-26625 13443,-7868.4 20695,31322.3 9348,50524.1 -6079,10286.6 -6024,24328 143,35463.8 11164,20172.9 -155,58915.1 -20730,70958.6 -8820,5161.6 -2847,15290.5 18545,31445.6 30955,23378.6 31556,25833.5 31556,128989.6 0,86205.9 3480,108455.7 19319,123461.9 17773,16841.1 19319,16901.5 19319,753.7 0,-17638.8 30962,-39200.4 56290,-39200.4 7472,0 54151,39559 103731,87908.4 49881,48643.4 102077,90036 116856,92671.6 14690,2620.2 30595,5404.5 35344,6187.4 4748,784.2 27103,-5856 49678,-14754.3 z m -533012,-417122.7 c 0,-27790.8 -57325,-57455 -125889,-65145.8 -55357,-6209.2 -56263,-5857.9 -56263,21794.8 0,22890.4 8705,31895.3 46918,48532.5 61402,26732.5 135234,23904.5 135234,-5181.5 z m 62872,-2542 c 27962,-25371.1 41211,-55546.7 24388,-55546.7 -19348,0 -70700,46080.8 -70700,63442.7 0,27098.3 9538,25471.6 46312,-7896 z m -59642,-82149.4 c 2369,-15679.6 -7329,-26144.1 -36400,-39272.6 -62711,-28321.8 -137685,-41438.6 -155740,-27247 -33258,26139.9 -11098,61236.6 42650,67550.3 21639,2541.7 50981,9140.8 65204,14665.5 41309,16044.2 80594,8728.8 84286,-15696.2 z m 0,-83980.5 c 3376,-22367.6 -10926,-30372 -127695,-71471 -87173,-30681.3 -125761,-16213.6 -97901,36708 9705,18435.1 25993,26856.7 62524,32327 27169,4069 64303,12024.2 82518,17679.3 48663,15106.9 76777,9787.3 80554,-15243.3 z m 58531,-78714.2 c 17618,-17858.1 32031,-38934.6 32031,-46834.5 0,-25627.6 -69578,19711.1 -78447,51117 -10638,37670.5 6607,36080.4 46419,-4282.5 z m -58481,-5289.3 c 3841,-25479 -38532,-48488.4 -121860,-66174.4 -61135,-12975.7 -88101,-5616.5 -83522,22793.2 2499,15508 22859,26838.2 80620,44865 92436,28846.4 120240,28516 124762,-1483.8 z m 81484,-118603.4 c 106775,-47532.9 116012,-167394.4 15325,-198864.4 -41806,-13066.9 -68493,-6026.1 -84496,22290.8 -12252,21683.1 -4058,61105.5 12702,61105.5 5663,0 10296,7297.3 10296,16216.1 0,41619.5 -163027,60477.5 -229885,26590.3 -23488,-11905.2 -33714,-42806.4 -14166,-42806.4 14608,0 24707,-31487.8 17243,-53759.3 -10168,-30343 -40750,-40855.2 -85108,-29255.8 -100085,26171.9 -97276,143778.1 4627,193684.4 83560,40922 266731,43409.3 353462,4798.8 z m -66434,-92097.3 c 6183,-5856.4 3497,-14855.5 -6870,-23002.8 -22700,-17842.2 -21489,-44379 3410,-74757.3 18699,-22812.8 21035,-56951.7 27471,-401316.6 11089,-593452 55221,-1039838.7 113389,-1146925.3 23158,-42633.9 19910,-42803.3 -39931,-2088.6 -77083,52449.2 -135776,120746.9 -187778,218512.1 -98180,184580.1 -132297,432908.9 -132297,962978.9 0,300987.4 2051,340367 19195,368657.4 16286,26873.9 17151,36799.2 5712,65501.9 -7416,18605.5 -10781,36387.8 -7478,39515.8 21919,20758.7 181604,15251.8 205179,-7075.5 z m 897161,-565898.4 c 3345,-5125.3 -4046,-31001.5 -16423,-57503 -19297,-41320.7 -27070,-48183.8 -54562,-48183.8 -86120,0 -224567,-38486.4 -367295,-102102.2 -82420,-36736.1 -110886,-45178.5 -120772,-35816.9 -25218,23882.8 16694,80570.5 81600,110368.8 57579,26434.4 218547,58915.4 291972,58915.4 42597,0 43604,1922.2 19363,36960.6 l -17830,25769.8 48189,1237 c 26502,681.2 63091,4828.4 81306,9218.2 47309,11400.7 47751,11410 54456,1136.1 z"
         id="path3013"
         style="fill:#ffb700;fill-opacity:1;stroke:none"
         inkscape:connector-curvature="0" />
    </g>
  </g>
</svg>
